<svg class="diagram-root" style="background: #f5f6f6" xmlns="http://www.w3.org/2000/svg" xmlns:xlink="http://www.w3.org/1999/xlink"><style>.diagram-root { font-family: "Helvetica Neue", sans-serif; font-size: 12px; } .t { overflow: visible; } .t-bg { y: 40; fill: #fff;   } .th { fill: #005aa0;   } .tht { fill: #fff; font-size: 14px;  } .tf { fill: #323c46; overflow: visible; } .tf.pk { fill: #005aa0; font-weight: bold; } .tf.fk { font-weight: bold; } .ty { fill: #adb1b5; font-weight: normal; text-anchor: end; } .r { fill: transparent; stroke: #c3c3c3; stroke-width: 1; } .l { stroke: 1; } .i { fill: #c2c7ce; stroke: #c2c7ce; } .i.ix { fill: #afb3b6; stroke: #000; } .fa { fill: transparent; overflow: visible; } .fa .bg.hover { fill: #f7f7f7; } .c { cy: 12; r: 4; stroke: #d2d2dc; fill: #d2d2dc; } .hr { fill: transparent; stroke: #323c46; stroke-opacity: 0.035; stroke-width: 13; } .dc { stroke: #fa5a3c; fill: #fa5a3c; } .x { stroke: white; stroke-width: 1; } .hl .th { fill: #1b9bff; } .hl .tht {  } .fhl .bg { fill: #e7f4ff; } .fhls .bg {  } .r.hl { stroke: #1b9bff; } .dim { opacity: 0.25; }</style><g class="drawing-wrapper" transform="translate(-39, 95) scale(1,1)"><g class="rs"><path d="M 309 132 m -1, 0 a 1,1 0 1,0 2,0 a 1,1 0 1,0 -2,0 M 309 132 m -0.5, 0 a 0.5,0.5 0 1,0 1,0 a 0.5,0.5 0 1,0 -1,0  M309 132 L309 132 297 132 M 309 138 m -1, 0 a 1,1 0 1,0 2,0 a 1,1 0 1,0 -2,0 M 309 138 m -0.5, 0 a 0.5,0.5 0 1,0 1,0 a 0.5,0.5 0 1,0 -1,0  M309 138 L309 138 302 132 309 126 M 309 126 m -1, 0 a 1,1 0 1,0 2,0 a 1,1 0 1,0 -2,0 M 309 126 m -0.5, 0 a 0.5,0.5 0 1,0 1,0 a 0.5,0.5 0 1,0 -1,0  M297 132 Q 274.18 132, 251.35 62 T 205.7 -8 M 193.7 -8 m -1, 0 a 1,1 0 1,0 2,0 a 1,1 0 1,0 -2,0 M 193.7 -8 m -0.5, 0 a 0.5,0.5 0 1,0 1,0 a 0.5,0.5 0 1,0 -1,0  M193.7 -8 L193.7 -8 205.7 -8 M199.7 -2 L199.7 -2 199.7 -14" id="h4123789742" class="r"></path><path d="M 309 157 m -1, 0 a 1,1 0 1,0 2,0 a 1,1 0 1,0 -2,0 M 309 157 m -0.5, 0 a 0.5,0.5 0 1,0 1,0 a 0.5,0.5 0 1,0 -1,0  M309 157 L309 157 297 157 M 309 163 m -1, 0 a 1,1 0 1,0 2,0 a 1,1 0 1,0 -2,0 M 309 163 m -0.5, 0 a 0.5,0.5 0 1,0 1,0 a 0.5,0.5 0 1,0 -1,0  M309 163 L309 163 302 157 309 151 M 309 151 m -1, 0 a 1,1 0 1,0 2,0 a 1,1 0 1,0 -2,0 M 309 151 m -0.5, 0 a 0.5,0.5 0 1,0 1,0 a 0.5,0.5 0 1,0 -1,0  M297 157 Q 271.51 157, 246.02 158.5 T 195.03 160 M 183.03 160 m -1, 0 a 1,1 0 1,0 2,0 a 1,1 0 1,0 -2,0 M 183.03 160 m -0.5, 0 a 0.5,0.5 0 1,0 1,0 a 0.5,0.5 0 1,0 -1,0  M183.03 160 L183.03 160 195.03 160 M189.03 166 L189.03 166 189.03 154" id="h737730101" class="r"></path><path d="M 309 182 m -1, 0 a 1,1 0 1,0 2,0 a 1,1 0 1,0 -2,0 M 309 182 m -0.5, 0 a 0.5,0.5 0 1,0 1,0 a 0.5,0.5 0 1,0 -1,0  M309 182 L309 182 297 182 M 309 188 m -1, 0 a 1,1 0 1,0 2,0 a 1,1 0 1,0 -2,0 M 309 188 m -0.5, 0 a 0.5,0.5 0 1,0 1,0 a 0.5,0.5 0 1,0 -1,0  M309 188 L309 188 302 182 309 176 M 309 176 m -1, 0 a 1,1 0 1,0 2,0 a 1,1 0 1,0 -2,0 M 309 176 m -0.5, 0 a 0.5,0.5 0 1,0 1,0 a 0.5,0.5 0 1,0 -1,0  M297 182 Q 265.34 182, 233.68 228.5 T 170.36 275 M 158.36 275 m -1, 0 a 1,1 0 1,0 2,0 a 1,1 0 1,0 -2,0 M 158.36 275 m -0.5, 0 a 0.5,0.5 0 1,0 1,0 a 0.5,0.5 0 1,0 -1,0  M158.36 275 L158.36 275 170.36 275 M164.36 281 L164.36 281 164.36 269" id="h2544650471" class="r"></path><path d="M 309 207 m -1, 0 a 1,1 0 1,0 2,0 a 1,1 0 1,0 -2,0 M 309 207 m -0.5, 0 a 0.5,0.5 0 1,0 1,0 a 0.5,0.5 0 1,0 -1,0  M309 207 L309 207 297 207 M 309 213 m -1, 0 a 1,1 0 1,0 2,0 a 1,1 0 1,0 -2,0 M 309 213 m -0.5, 0 a 0.5,0.5 0 1,0 1,0 a 0.5,0.5 0 1,0 -1,0  M309 213 L309 213 302 207 309 201 M 309 201 m -1, 0 a 1,1 0 1,0 2,0 a 1,1 0 1,0 -2,0 M 309 201 m -0.5, 0 a 0.5,0.5 0 1,0 1,0 a 0.5,0.5 0 1,0 -1,0  M297 207 Q 273.68 207, 250.36 304.5 T 203.72 402 M 191.72 402 m -1, 0 a 1,1 0 1,0 2,0 a 1,1 0 1,0 -2,0 M 191.72 402 m -0.5, 0 a 0.5,0.5 0 1,0 1,0 a 0.5,0.5 0 1,0 -1,0  M191.72 402 L191.72 402 203.72 402 M197.72 408 L197.72 408 197.72 396" id="h3089693579" class="r"></path></g><g class="hrs"></g><g class="ts"><svg width="132.7" height="150" x="61" y="-65" id="h3889921393" class="t"><rect height="40" width="132.7" class="th"></rect><text x="13" y="25" class="tht">Users</text><rect height="110" width="132.7" class="t-bg"></rect><text x="13" y="61" class="tf pk">id<tspan x="119.69999999999999" class="ty">int</tspan></text><path d="M7,14A2,2 0 0,1 5,12A2,2 0 0,1 7,10A2,2 0 0,1 9,12A2,2 0 0,1 7,14M12.65,10C11.83,7.67 9.61,6 7, 6A6, 6 0 0, 0 1, 12A6, 6 0 0, 0 7, 18C9.61, 18 11.83, 16.33 12.65, 14H17V18H21V14H23V10H12.65Z" class="i pk" transform="translate(87.02617187499999, 48) scale(0.65)"></path><text x="13" y="86" class="tf">name<tspan x="119.69999999999999" class="ty">text</tspan></text><text x="13" y="111" class="tf">password<tspan x="119.69999999999999" class="ty">text</tspan></text><path d="M22,18V22H18V19H15V16H12L9.74,13.74C9.19,13.91 8.61,14 8,14A6,6 0 0,1 2,8A6,6 0 0,1 8,2A6,6 0 0,1 14,8C14,8.61 13.91, 9.19 13.74, 9.74L22, 18M7, 5A2, 2 0 0, 0 5, 7A2, 2 0 0, 0 7, 9A2, 2 0 0, 0 9, 7A2, 2 0 0, 0 7, 5Z" class="i uq" transform="translate(84.35820312499999, 100.5) scale(0.5)"></path><text x="13" y="136" class="tf">region_id</text></svg><svg width="95.36" height="100" x="63" y="218" id="h3849288478" class="t"><rect height="40" width="95.36" class="th"></rect><text x="13" y="25" class="tht">Region</text><rect height="60" width="95.36" class="t-bg"></rect><text x="13" y="61" class="tf pk">id<tspan x="82.36" class="ty">int</tspan></text><path d="M7,14A2,2 0 0,1 5,12A2,2 0 0,1 7,10A2,2 0 0,1 9,12A2,2 0 0,1 7,14M12.65,10C11.83,7.67 9.61,6 7, 6A6, 6 0 0, 0 1, 12A6, 6 0 0, 0 7, 18C9.61, 18 11.83, 16.33 12.65, 14H17V18H21V14H23V10H12.65Z" class="i pk" transform="translate(49.686171875, 48) scale(0.65)"></path><text x="13" y="86" class="tf">name<tspan x="82.36" class="ty">text</tspan></text></svg><svg width="128.72" height="100" x="63" y="345" id="h1234641711" class="t"><rect height="40" width="128.72" class="th"></rect><text x="13" y="25" class="tht">Categories</text><rect height="60" width="128.72" class="t-bg"></rect><text x="13" y="61" class="tf pk">id<tspan x="115.72" class="ty">int</tspan></text><path d="M7,14A2,2 0 0,1 5,12A2,2 0 0,1 7,10A2,2 0 0,1 9,12A2,2 0 0,1 7,14M12.65,10C11.83,7.67 9.61,6 7, 6A6, 6 0 0, 0 1, 12A6, 6 0 0, 0 7, 18C9.61, 18 11.83, 16.33 12.65, 14H17V18H21V14H23V10H12.65Z" class="i pk" transform="translate(83.046171875, 48) scale(0.65)"></path><text x="13" y="86" class="tf">category_name</text></svg><svg width="108.04" height="225" x="309" y="50" id="h1611266215" class="t"><rect height="40" width="108.04" class="th"></rect><text x="13" y="25" class="tht">Posts</text><rect height="185" width="108.04" class="t-bg"></rect><text x="13" y="61" class="tf pk">id<tspan x="95.04" class="ty">int</tspan></text><path d="M7,14A2,2 0 0,1 5,12A2,2 0 0,1 7,10A2,2 0 0,1 9,12A2,2 0 0,1 7,14M12.65,10C11.83,7.67 9.61,6 7, 6A6, 6 0 0, 0 1, 12A6, 6 0 0, 0 7, 18C9.61, 18 11.83, 16.33 12.65, 14H17V18H21V14H23V10H12.65Z" class="i pk" transform="translate(62.366171875000006, 48) scale(0.65)"></path><text x="13" y="86" class="tf fk">user_id</text><text x="13" y="111" class="tf fk">location_id</text><text x="13" y="136" class="tf fk">region_id</text><text x="13" y="161" class="tf fk">category_id</text><text x="13" y="186" class="tf">title<tspan x="95.04" class="ty">text</tspan></text><text x="13" y="211" class="tf">story<tspan x="95.04" class="ty">text</tspan></text></svg><svg width="120.03" height="100" x="63" y="103" id="h1532014158" class="t"><rect height="40" width="120.03" class="th"></rect><text x="13" y="25" class="tht">location</text><rect height="60" width="120.03" class="t-bg"></rect><text x="13" y="61" class="tf pk">id<tspan x="107.03" class="ty">int</tspan></text><path d="M7,14A2,2 0 0,1 5,12A2,2 0 0,1 7,10A2,2 0 0,1 9,12A2,2 0 0,1 7,14M12.65,10C11.83,7.67 9.61,6 7, 6A6, 6 0 0, 0 1, 12A6, 6 0 0, 0 7, 18C9.61, 18 11.83, 16.33 12.65, 14H17V18H21V14H23V10H12.65Z" class="i pk" transform="translate(74.356171875, 48) scale(0.65)"></path><text x="13" y="86" class="tf">city_name<tspan x="107.03" class="ty">text</tspan></text></svg></g></g><text class="qdbd-link" x="10" y="20">www.quickdatabasediagrams.com</text></svg>