<svg class="diagram-root" style="background: #f5f6f6" xmlns="http://www.w3.org/2000/svg" xmlns:xlink="http://www.w3.org/1999/xlink"><style>.diagram-root { font-family: "Helvetica Neue", sans-serif; font-size: 12px; } .t { overflow: visible; } .t-bg { y: 40; fill: #fff;   } .th { fill: #005aa0;   } .tht { fill: #fff; font-size: 14px;  } .tf { fill: #323c46; overflow: visible; } .tf.pk { fill: #005aa0; font-weight: bold; } .tf.fk { font-weight: bold; } .ty { fill: #adb1b5; font-weight: normal; text-anchor: end; } .r { fill: transparent; stroke: #c3c3c3; stroke-width: 1; } .l { stroke: 1; } .i { fill: #c2c7ce; stroke: #c2c7ce; } .i.ix { fill: #afb3b6; stroke: #000; } .fa { fill: transparent; overflow: visible; } .fa .bg.hover { fill: #f7f7f7; } .c { cy: 12; r: 4; stroke: #d2d2dc; fill: #d2d2dc; } .hr { fill: transparent; stroke: #323c46; stroke-opacity: 0.035; stroke-width: 13; } .dc { stroke: #fa5a3c; fill: #fa5a3c; } .x { stroke: white; stroke-width: 1; } .hl .th { fill: #1b9bff; } .hl .tht {  } .fhl .bg { fill: #e7f4ff; } .fhls .bg {  } .r.hl { stroke: #1b9bff; } .dim { opacity: 0.25; }</style><g class="drawing-wrapper" transform="translate(-67, 61) scale(1,1)"><g class="rs"><path d="M 316 170 m -1, 0 a 1,1 0 1,0 2,0 a 1,1 0 1,0 -2,0 M 316 170 m -0.5, 0 a 0.5,0.5 0 1,0 1,0 a 0.5,0.5 0 1,0 -1,0  M316 170 L316 170 304 170 M 316 176 m -1, 0 a 1,1 0 1,0 2,0 a 1,1 0 1,0 -2,0 M 316 176 m -0.5, 0 a 0.5,0.5 0 1,0 1,0 a 0.5,0.5 0 1,0 -1,0  M316 176 L316 176 309 170 316 164 M 316 164 m -1, 0 a 1,1 0 1,0 2,0 a 1,1 0 1,0 -2,0 M 316 164 m -0.5, 0 a 0.5,0.5 0 1,0 1,0 a 0.5,0.5 0 1,0 -1,0  M304 170 Q 284.35 170, 264.69 98 T 225.37 26 M 213.37 26 m -1, 0 a 1,1 0 1,0 2,0 a 1,1 0 1,0 -2,0 M 213.37 26 m -0.5, 0 a 0.5,0.5 0 1,0 1,0 a 0.5,0.5 0 1,0 -1,0  M213.37 26 L213.37 26 225.37 26 M219.37 32 L219.37 32 219.37 20" id="h694446156" class="r"></path><path d="M 316 195 m -1, 0 a 1,1 0 1,0 2,0 a 1,1 0 1,0 -2,0 M 316 195 m -0.5, 0 a 0.5,0.5 0 1,0 1,0 a 0.5,0.5 0 1,0 -1,0  M316 195 L316 195 304 195 M 316 201 m -1, 0 a 1,1 0 1,0 2,0 a 1,1 0 1,0 -2,0 M 316 201 m -0.5, 0 a 0.5,0.5 0 1,0 1,0 a 0.5,0.5 0 1,0 -1,0  M316 201 L316 201 309 195 316 189 M 316 189 m -1, 0 a 1,1 0 1,0 2,0 a 1,1 0 1,0 -2,0 M 316 189 m -0.5, 0 a 0.5,0.5 0 1,0 1,0 a 0.5,0.5 0 1,0 -1,0  M304 195 Q 279.34 195, 254.68 194 T 205.36 193 M 193.36 193 m -1, 0 a 1,1 0 1,0 2,0 a 1,1 0 1,0 -2,0 M 193.36 193 m -0.5, 0 a 0.5,0.5 0 1,0 1,0 a 0.5,0.5 0 1,0 -1,0  M193.36 193 L193.36 193 205.36 193 M199.36 199 L199.36 199 199.36 187" id="h1013949321" class="r"></path><path d="M 397.38 338 m -1, 0 a 1,1 0 1,0 2,0 a 1,1 0 1,0 -2,0 M 397.38 338 m -0.5, 0 a 0.5,0.5 0 1,0 1,0 a 0.5,0.5 0 1,0 -1,0  M397.38 338 L397.38 338 409.38 338 M 397.38 344 m -1, 0 a 1,1 0 1,0 2,0 a 1,1 0 1,0 -2,0 M 397.38 344 m -0.5, 0 a 0.5,0.5 0 1,0 1,0 a 0.5,0.5 0 1,0 -1,0  M397.38 344 L397.38 344 404.38 338 397.38 332 M 397.38 332 m -1, 0 a 1,1 0 1,0 2,0 a 1,1 0 1,0 -2,0 M 397.38 332 m -0.5, 0 a 0.5,0.5 0 1,0 1,0 a 0.5,0.5 0 1,0 -1,0  M409.38 338 C 486.03600000000006 338, 476.04 145, 426.04 145 M 414.04 145 m -1, 0 a 1,1 0 1,0 2,0 a 1,1 0 1,0 -2,0 M 414.04 145 m -0.5, 0 a 0.5,0.5 0 1,0 1,0 a 0.5,0.5 0 1,0 -1,0  M414.04 145 L414.04 145 426.04 145 M420.04 151 L420.04 151 420.04 139" id="h3067000505" class="r"></path><path d="M 294 363 m -1, 0 a 1,1 0 1,0 2,0 a 1,1 0 1,0 -2,0 M 294 363 m -0.5, 0 a 0.5,0.5 0 1,0 1,0 a 0.5,0.5 0 1,0 -1,0  M294 363 L294 363 282 363 M 294 369 m -1, 0 a 1,1 0 1,0 2,0 a 1,1 0 1,0 -2,0 M 294 369 m -0.5, 0 a 0.5,0.5 0 1,0 1,0 a 0.5,0.5 0 1,0 -1,0  M294 369 L294 369 287 363 294 357 M 294 357 m -1, 0 a 1,1 0 1,0 2,0 a 1,1 0 1,0 -2,0 M 294 357 m -0.5, 0 a 0.5,0.5 0 1,0 1,0 a 0.5,0.5 0 1,0 -1,0  M282 363 Q 264.43 363, 246.86 337.5 T 211.71 312 M 199.71 312 m -1, 0 a 1,1 0 1,0 2,0 a 1,1 0 1,0 -2,0 M 199.71 312 m -0.5, 0 a 0.5,0.5 0 1,0 1,0 a 0.5,0.5 0 1,0 -1,0  M199.71 312 L199.71 312 211.71 312 M205.71 318 L205.71 318 205.71 306" id="h3020454270" class="r"></path></g><g class="hrs"></g><g class="ts"><svg width="117.37" height="150" x="96" y="-31" id="h959375892" class="t"><rect height="40" width="117.37" class="th"></rect><text x="13" y="25" class="tht">Patient</text><rect height="110" width="117.37" class="t-bg"></rect><text x="13" y="61" class="tf pk">id<tspan x="104.37" class="ty">int</tspan></text><path d="M7,14A2,2 0 0,1 5,12A2,2 0 0,1 7,10A2,2 0 0,1 9,12A2,2 0 0,1 7,14M12.65,10C11.83,7.67 9.61,6 7, 6A6, 6 0 0, 0 1, 12A6, 6 0 0, 0 7, 18C9.61, 18 11.83, 16.33 12.65, 14H17V18H21V14H23V10H12.65Z" class="i pk" transform="translate(71.696171875, 48) scale(0.65)"></path><text x="13" y="86" class="tf">name<tspan x="104.37" class="ty">text</tspan></text><text x="13" y="111" class="tf">insurance<tspan x="104.37" class="ty">text</tspan></text><text x="13" y="136" class="tf">DOB<tspan x="104.37" class="ty">text</tspan></text></svg><svg width="95.36" height="100" x="98" y="136" id="h620315142" class="t"><rect height="40" width="95.36" class="th"></rect><text x="13" y="25" class="tht">Doctor</text><rect height="60" width="95.36" class="t-bg"></rect><text x="13" y="61" class="tf pk">id<tspan x="82.36" class="ty">int</tspan></text><path d="M7,14A2,2 0 0,1 5,12A2,2 0 0,1 7,10A2,2 0 0,1 9,12A2,2 0 0,1 7,14M12.65,10C11.83,7.67 9.61,6 7, 6A6, 6 0 0, 0 1, 12A6, 6 0 0, 0 7, 18C9.61, 18 11.83, 16.33 12.65, 14H17V18H21V14H23V10H12.65Z" class="i pk" transform="translate(49.686171875, 48) scale(0.65)"></path><text x="13" y="86" class="tf">name<tspan x="82.36" class="ty">text</tspan></text></svg><svg width="110.71" height="125" x="89" y="255" id="h1794948770" class="t"><rect height="40" width="110.71" class="th"></rect><text x="13" y="25" class="tht">Diseases</text><rect height="85" width="110.71" class="t-bg"></rect><text x="13" y="61" class="tf pk">id<tspan x="97.71" class="ty">int</tspan></text><path d="M7,14A2,2 0 0,1 5,12A2,2 0 0,1 7,10A2,2 0 0,1 9,12A2,2 0 0,1 7,14M12.65,10C11.83,7.67 9.61,6 7, 6A6, 6 0 0, 0 1, 12A6, 6 0 0, 0 7, 18C9.61, 18 11.83, 16.33 12.65, 14H17V18H21V14H23V10H12.65Z" class="i pk" transform="translate(65.036171875, 48) scale(0.65)"></path><text x="13" y="86" class="tf">name<tspan x="97.71" class="ty">text</tspan></text><text x="13" y="111" class="tf">description</text></svg><svg width="98.04" height="150" x="316" y="88" id="h2569522486" class="t"><rect height="40" width="98.04" class="th"></rect><text x="13" y="25" class="tht">visits</text><rect height="110" width="98.04" class="t-bg"></rect><text x="13" y="61" class="tf pk">id<tspan x="85.04" class="ty">int</tspan></text><path d="M7,14A2,2 0 0,1 5,12A2,2 0 0,1 7,10A2,2 0 0,1 9,12A2,2 0 0,1 7,14M12.65,10C11.83,7.67 9.61,6 7, 6A6, 6 0 0, 0 1, 12A6, 6 0 0, 0 7, 18C9.61, 18 11.83, 16.33 12.65, 14H17V18H21V14H23V10H12.65Z" class="i pk" transform="translate(52.366171875000006, 48) scale(0.65)"></path><text x="13" y="86" class="tf fk">patient_id</text><text x="13" y="111" class="tf fk">doctor_id</text><text x="13" y="136" class="tf">date<tspan x="85.04" class="ty">text</tspan></text></svg><svg width="103.38" height="150" x="294" y="256" id="h3047656030" class="t"><rect height="40" width="103.38" class="th"></rect><text x="13" y="25" class="tht">Diagnoses</text><rect height="110" width="103.38" class="t-bg"></rect><text x="13" y="61" class="tf pk">id<tspan x="90.38" class="ty">int</tspan></text><path d="M7,14A2,2 0 0,1 5,12A2,2 0 0,1 7,10A2,2 0 0,1 9,12A2,2 0 0,1 7,14M12.65,10C11.83,7.67 9.61,6 7, 6A6, 6 0 0, 0 1, 12A6, 6 0 0, 0 7, 18C9.61, 18 11.83, 16.33 12.65, 14H17V18H21V14H23V10H12.65Z" class="i pk" transform="translate(57.706171874999995, 48) scale(0.65)"></path><text x="13" y="86" class="tf fk">visit_id</text><text x="13" y="111" class="tf fk">disease_id</text><text x="13" y="136" class="tf">notes</text></svg></g></g><text class="qdbd-link" x="10" y="20">www.quickdatabasediagrams.com</text></svg>