<svg class="diagram-root" style="background: #f5f6f6" xmlns="http://www.w3.org/2000/svg" xmlns:xlink="http://www.w3.org/1999/xlink"><style>.diagram-root { font-family: "Helvetica Neue", sans-serif; font-size: 12px; } .t { overflow: visible; } .t-bg { y: 40; fill: #fff;   } .th { fill: #005aa0;   } .tht { fill: #fff; font-size: 14px;  } .tf { fill: #323c46; overflow: visible; } .tf.pk { fill: #005aa0; font-weight: bold; } .tf.fk { font-weight: bold; } .ty { fill: #adb1b5; font-weight: normal; text-anchor: end; } .r { fill: transparent; stroke: #c3c3c3; stroke-width: 1; } .l { stroke: 1; } .i { fill: #c2c7ce; stroke: #c2c7ce; } .i.ix { fill: #afb3b6; stroke: #000; } .fa { fill: transparent; overflow: visible; } .fa .bg.hover { fill: #f7f7f7; } .c { cy: 12; r: 4; stroke: #d2d2dc; fill: #d2d2dc; } .hr { fill: transparent; stroke: #323c46; stroke-opacity: 0.035; stroke-width: 13; } .dc { stroke: #fa5a3c; fill: #fa5a3c; } .x { stroke: white; stroke-width: 1; } .hl .th { fill: #1b9bff; } .hl .tht {  } .fhl .bg { fill: #e7f4ff; } .fhls .bg {  } .r.hl { stroke: #1b9bff; } .dim { opacity: 0.25; }</style><g class="drawing-wrapper" transform="translate(-133, 125.55555555555563) scale(1,1)"><g class="rs"><path d="M 293.71 183 m -1, 0 a 1,1 0 1,0 2,0 a 1,1 0 1,0 -2,0 M 293.71 183 m -0.5, 0 a 0.5,0.5 0 1,0 1,0 a 0.5,0.5 0 1,0 -1,0  M293.71 183 L293.71 183 305.71 183 M 293.71 189 m -1, 0 a 1,1 0 1,0 2,0 a 1,1 0 1,0 -2,0 M 293.71 189 m -0.5, 0 a 0.5,0.5 0 1,0 1,0 a 0.5,0.5 0 1,0 -1,0  M293.71 189 L293.71 189 300.71 183 293.71 177 M 293.71 177 m -1, 0 a 1,1 0 1,0 2,0 a 1,1 0 1,0 -2,0 M 293.71 177 m -0.5, 0 a 0.5,0.5 0 1,0 1,0 a 0.5,0.5 0 1,0 -1,0  M305.71 183 Q 321.34 183, 336.97 75.11 T 368.22 -32.78 M 380.22 -32.78 m -1, 0 a 1,1 0 1,0 2,0 a 1,1 0 1,0 -2,0 M 380.22 -32.78 m -0.5, 0 a 0.5,0.5 0 1,0 1,0 a 0.5,0.5 0 1,0 -1,0  M380.22 -32.78 L380.22 -32.78 368.22 -32.78 M374.22 -26.78 L374.22 -26.78 374.22 -38.78" id="h419733877" class="r"></path><path d="M 635.22 318.56 m -1, 0 a 1,1 0 1,0 2,0 a 1,1 0 1,0 -2,0 M 635.22 318.56 m -0.5, 0 a 0.5,0.5 0 1,0 1,0 a 0.5,0.5 0 1,0 -1,0  M635.22 318.56 L635.22 318.56 623.22 318.56 M 635.22 324.56 m -1, 0 a 1,1 0 1,0 2,0 a 1,1 0 1,0 -2,0 M 635.22 324.56 m -0.5, 0 a 0.5,0.5 0 1,0 1,0 a 0.5,0.5 0 1,0 -1,0  M635.22 324.56 L635.22 324.56 628.22 318.56 635.22 312.56 M 635.22 312.56 m -1, 0 a 1,1 0 1,0 2,0 a 1,1 0 1,0 -2,0 M 635.22 312.56 m -0.5, 0 a 0.5,0.5 0 1,0 1,0 a 0.5,0.5 0 1,0 -1,0  M623.22 318.56 Q 541.85 318.56, 460.47 359.78 T 297.71 401 M 285.71 401 m -1, 0 a 1,1 0 1,0 2,0 a 1,1 0 1,0 -2,0 M 285.71 401 m -0.5, 0 a 0.5,0.5 0 1,0 1,0 a 0.5,0.5 0 1,0 -1,0  M285.71 401 L285.71 401 297.71 401 M291.71 407 L291.71 407 291.71 395" id="h2372472583" class="r"></path><path d="M 789.28 343.56 m -1, 0 a 1,1 0 1,0 2,0 a 1,1 0 1,0 -2,0 M 789.28 343.56 m -0.5, 0 a 0.5,0.5 0 1,0 1,0 a 0.5,0.5 0 1,0 -1,0  M789.28 343.56 L789.28 343.56 801.28 343.56 M 789.28 349.56 m -1, 0 a 1,1 0 1,0 2,0 a 1,1 0 1,0 -2,0 M 789.28 349.56 m -0.5, 0 a 0.5,0.5 0 1,0 1,0 a 0.5,0.5 0 1,0 -1,0  M789.28 349.56 L789.28 349.56 796.28 343.56 789.28 337.56 M 789.28 337.56 m -1, 0 a 1,1 0 1,0 2,0 a 1,1 0 1,0 -2,0 M 789.28 337.56 m -0.5, 0 a 0.5,0.5 0 1,0 1,0 a 0.5,0.5 0 1,0 -1,0  M801.28 343.56 Q 823.02 343.56, 844.75 363.12 T 888.22 382.67 M 900.22 382.67 m -1, 0 a 1,1 0 1,0 2,0 a 1,1 0 1,0 -2,0 M 900.22 382.67 m -0.5, 0 a 0.5,0.5 0 1,0 1,0 a 0.5,0.5 0 1,0 -1,0  M900.22 382.67 L900.22 382.67 888.22 382.67 M894.22 388.67 L894.22 388.67 894.22 376.67" id="h489669267" class="r"></path><path d="M 789.28 368.56 m -1, 0 a 1,1 0 1,0 2,0 a 1,1 0 1,0 -2,0 M 789.28 368.56 m -0.5, 0 a 0.5,0.5 0 1,0 1,0 a 0.5,0.5 0 1,0 -1,0  M789.28 368.56 L789.28 368.56 801.28 368.56 M 789.28 374.56 m -1, 0 a 1,1 0 1,0 2,0 a 1,1 0 1,0 -2,0 M 789.28 374.56 m -0.5, 0 a 0.5,0.5 0 1,0 1,0 a 0.5,0.5 0 1,0 -1,0  M789.28 374.56 L789.28 374.56 796.28 368.56 789.28 362.56 M 789.28 362.56 m -1, 0 a 1,1 0 1,0 2,0 a 1,1 0 1,0 -2,0 M 789.28 362.56 m -0.5, 0 a 0.5,0.5 0 1,0 1,0 a 0.5,0.5 0 1,0 -1,0  M801.28 368.56 Q 823.02 368.56, 844.75 375.62 T 888.22 382.67 M 900.22 382.67 m -1, 0 a 1,1 0 1,0 2,0 a 1,1 0 1,0 -2,0 M 900.22 382.67 m -0.5, 0 a 0.5,0.5 0 1,0 1,0 a 0.5,0.5 0 1,0 -1,0  M900.22 382.67 L900.22 382.67 888.22 382.67 M894.22 388.67 L894.22 388.67 894.22 376.67" id="h2278679783" class="r"></path><path d="M 789.28 393.56 m -1, 0 a 1,1 0 1,0 2,0 a 1,1 0 1,0 -2,0 M 789.28 393.56 m -0.5, 0 a 0.5,0.5 0 1,0 1,0 a 0.5,0.5 0 1,0 -1,0  M789.28 393.56 L789.28 393.56 801.28 393.56 M 789.28 399.56 m -1, 0 a 1,1 0 1,0 2,0 a 1,1 0 1,0 -2,0 M 789.28 399.56 m -0.5, 0 a 0.5,0.5 0 1,0 1,0 a 0.5,0.5 0 1,0 -1,0  M789.28 399.56 L789.28 399.56 796.28 393.56 789.28 387.56 M 789.28 387.56 m -1, 0 a 1,1 0 1,0 2,0 a 1,1 0 1,0 -2,0 M 789.28 387.56 m -0.5, 0 a 0.5,0.5 0 1,0 1,0 a 0.5,0.5 0 1,0 -1,0  M801.28 393.56 Q 823.02 393.56, 844.75 388.12 T 888.22 382.67 M 900.22 382.67 m -1, 0 a 1,1 0 1,0 2,0 a 1,1 0 1,0 -2,0 M 900.22 382.67 m -0.5, 0 a 0.5,0.5 0 1,0 1,0 a 0.5,0.5 0 1,0 -1,0  M900.22 382.67 L900.22 382.67 888.22 382.67 M894.22 388.67 L894.22 388.67 894.22 376.67" id="h3354098058" class="r"></path><path d="M 610.67 -13.560000000000002 m -1, 0 a 1,1 0 1,0 2,0 a 1,1 0 1,0 -2,0 M 610.67 -13.560000000000002 m -0.5, 0 a 0.5,0.5 0 1,0 1,0 a 0.5,0.5 0 1,0 -1,0  M610.67 -13.560000000000002 L610.67 -13.560000000000002 598.67 -13.560000000000002 M 610.67 -7.560000000000002 m -1, 0 a 1,1 0 1,0 2,0 a 1,1 0 1,0 -2,0 M 610.67 -7.560000000000002 m -0.5, 0 a 0.5,0.5 0 1,0 1,0 a 0.5,0.5 0 1,0 -1,0  M610.67 -7.560000000000002 L610.67 -7.560000000000002 603.67 -13.560000000000002 610.67 -19.560000000000002 M 610.67 -19.560000000000002 m -1, 0 a 1,1 0 1,0 2,0 a 1,1 0 1,0 -2,0 M 610.67 -19.560000000000002 m -0.5, 0 a 0.5,0.5 0 1,0 1,0 a 0.5,0.5 0 1,0 -1,0  M598.67 -13.560000000000002 Q 525.43 -13.560000000000002, 452.19 72.22 T 305.71 158 M 293.71 158 m -1, 0 a 1,1 0 1,0 2,0 a 1,1 0 1,0 -2,0 M 293.71 158 m -0.5, 0 a 0.5,0.5 0 1,0 1,0 a 0.5,0.5 0 1,0 -1,0  M293.71 158 L293.71 158 305.71 158 M299.71 164 L299.71 164 299.71 152" id="h2561147591" class="r"></path><path d="M 610.67 11.439999999999998 m -1, 0 a 1,1 0 1,0 2,0 a 1,1 0 1,0 -2,0 M 610.67 11.439999999999998 m -0.5, 0 a 0.5,0.5 0 1,0 1,0 a 0.5,0.5 0 1,0 -1,0  M610.67 11.439999999999998 L610.67 11.439999999999998 598.67 11.439999999999998 M 610.67 17.439999999999998 m -1, 0 a 1,1 0 1,0 2,0 a 1,1 0 1,0 -2,0 M 610.67 17.439999999999998 m -0.5, 0 a 0.5,0.5 0 1,0 1,0 a 0.5,0.5 0 1,0 -1,0  M610.67 17.439999999999998 L610.67 17.439999999999998 603.67 11.439999999999998 610.67 5.439999999999998 M 610.67 5.439999999999998 m -1, 0 a 1,1 0 1,0 2,0 a 1,1 0 1,0 -2,0 M 610.67 5.439999999999998 m -0.5, 0 a 0.5,0.5 0 1,0 1,0 a 0.5,0.5 0 1,0 -1,0  M598.67 11.439999999999998 C 548.67 11.439999999999998, 533.9399999999999 168.56, 623.22 168.56 M 635.22 168.56 m -1, 0 a 1,1 0 1,0 2,0 a 1,1 0 1,0 -2,0 M 635.22 168.56 m -0.5, 0 a 0.5,0.5 0 1,0 1,0 a 0.5,0.5 0 1,0 -1,0  M635.22 168.56 L635.22 168.56 623.22 168.56 M629.22 174.56 L629.22 174.56 629.22 162.56" id="h3733041614" class="r"></path><path d="M 156.56 -1.2199999999999989 m -1, 0 a 1,1 0 1,0 2,0 a 1,1 0 1,0 -2,0 M 156.56 -1.2199999999999989 m -0.5, 0 a 0.5,0.5 0 1,0 1,0 a 0.5,0.5 0 1,0 -1,0  M156.56 -1.2199999999999989 L156.56 -1.2199999999999989 144.56 -1.2199999999999989 M 156.56 4.780000000000001 m -1, 0 a 1,1 0 1,0 2,0 a 1,1 0 1,0 -2,0 M 156.56 4.780000000000001 m -0.5, 0 a 0.5,0.5 0 1,0 1,0 a 0.5,0.5 0 1,0 -1,0  M156.56 4.780000000000001 L156.56 4.780000000000001 149.56 -1.2199999999999989 156.56 -7.219999999999999 M 156.56 -7.219999999999999 m -1, 0 a 1,1 0 1,0 2,0 a 1,1 0 1,0 -2,0 M 156.56 -7.219999999999999 m -0.5, 0 a 0.5,0.5 0 1,0 1,0 a 0.5,0.5 0 1,0 -1,0  M144.56 -1.2199999999999989 C 92.064 -1.2199999999999989, 93 158, 143 158 M 155 158 m -1, 0 a 1,1 0 1,0 2,0 a 1,1 0 1,0 -2,0 M 155 158 m -0.5, 0 a 0.5,0.5 0 1,0 1,0 a 0.5,0.5 0 1,0 -1,0  M155 158 L155 158 143 158 M149 164 L149 164 149 152" id="h1914947893" class="r"></path><path d="M 276.6 23.78 m -1, 0 a 1,1 0 1,0 2,0 a 1,1 0 1,0 -2,0 M 276.6 23.78 m -0.5, 0 a 0.5,0.5 0 1,0 1,0 a 0.5,0.5 0 1,0 -1,0  M276.6 23.78 L276.6 23.78 288.6 23.78 M 276.6 29.78 m -1, 0 a 1,1 0 1,0 2,0 a 1,1 0 1,0 -2,0 M 276.6 29.78 m -0.5, 0 a 0.5,0.5 0 1,0 1,0 a 0.5,0.5 0 1,0 -1,0  M276.6 29.78 L276.6 29.78 283.6 23.78 276.6 17.78 M 276.6 17.78 m -1, 0 a 1,1 0 1,0 2,0 a 1,1 0 1,0 -2,0 M 276.6 17.78 m -0.5, 0 a 0.5,0.5 0 1,0 1,0 a 0.5,0.5 0 1,0 -1,0  M288.6 23.78 Q 372.26 23.78, 455.91 96.17 T 623.22 168.56 M 635.22 168.56 m -1, 0 a 1,1 0 1,0 2,0 a 1,1 0 1,0 -2,0 M 635.22 168.56 m -0.5, 0 a 0.5,0.5 0 1,0 1,0 a 0.5,0.5 0 1,0 -1,0  M635.22 168.56 L635.22 168.56 623.22 168.56 M629.22 174.56 L629.22 174.56 629.22 162.56" id="h2787031571" class="r"></path><path d="M 276.6 48.78 m -1, 0 a 1,1 0 1,0 2,0 a 1,1 0 1,0 -2,0 M 276.6 48.78 m -0.5, 0 a 0.5,0.5 0 1,0 1,0 a 0.5,0.5 0 1,0 -1,0  M276.6 48.78 L276.6 48.78 288.6 48.78 M 276.6 54.78 m -1, 0 a 1,1 0 1,0 2,0 a 1,1 0 1,0 -2,0 M 276.6 54.78 m -0.5, 0 a 0.5,0.5 0 1,0 1,0 a 0.5,0.5 0 1,0 -1,0  M276.6 54.78 L276.6 54.78 283.6 48.78 276.6 42.78 M 276.6 42.78 m -1, 0 a 1,1 0 1,0 2,0 a 1,1 0 1,0 -2,0 M 276.6 42.78 m -0.5, 0 a 0.5,0.5 0 1,0 1,0 a 0.5,0.5 0 1,0 -1,0  M288.6 48.78 Q 308.51 48.78, 328.41 8 T 368.22 -32.78 M 380.22 -32.78 m -1, 0 a 1,1 0 1,0 2,0 a 1,1 0 1,0 -2,0 M 380.22 -32.78 m -0.5, 0 a 0.5,0.5 0 1,0 1,0 a 0.5,0.5 0 1,0 -1,0  M380.22 -32.78 L380.22 -32.78 368.22 -32.78 M374.22 -26.78 L374.22 -26.78 374.22 -38.78" id="h2463840918" class="r"></path><path d="M 444.04 303 m -1, 0 a 1,1 0 1,0 2,0 a 1,1 0 1,0 -2,0 M 444.04 303 m -0.5, 0 a 0.5,0.5 0 1,0 1,0 a 0.5,0.5 0 1,0 -1,0  M444.04 303 L444.04 303 456.04 303 M 444.04 309 m -1, 0 a 1,1 0 1,0 2,0 a 1,1 0 1,0 -2,0 M 444.04 309 m -0.5, 0 a 0.5,0.5 0 1,0 1,0 a 0.5,0.5 0 1,0 -1,0  M444.04 309 L444.04 309 451.04 303 444.04 297 M 444.04 297 m -1, 0 a 1,1 0 1,0 2,0 a 1,1 0 1,0 -2,0 M 444.04 297 m -0.5, 0 a 0.5,0.5 0 1,0 1,0 a 0.5,0.5 0 1,0 -1,0  M456.04 303 C 556.5039999999999 303, 537.5799999999999 -32.78, 487.58 -32.78 M 475.58 -32.78 m -1, 0 a 1,1 0 1,0 2,0 a 1,1 0 1,0 -2,0 M 475.58 -32.78 m -0.5, 0 a 0.5,0.5 0 1,0 1,0 a 0.5,0.5 0 1,0 -1,0  M475.58 -32.78 L475.58 -32.78 487.58 -32.78 M481.58 -26.78 L481.58 -26.78 481.58 -38.78" id="h3857304036" class="r"></path><path d="M 444.04 328 m -1, 0 a 1,1 0 1,0 2,0 a 1,1 0 1,0 -2,0 M 444.04 328 m -0.5, 0 a 0.5,0.5 0 1,0 1,0 a 0.5,0.5 0 1,0 -1,0  M444.04 328 L444.04 328 456.04 328 M 444.04 334 m -1, 0 a 1,1 0 1,0 2,0 a 1,1 0 1,0 -2,0 M 444.04 334 m -0.5, 0 a 0.5,0.5 0 1,0 1,0 a 0.5,0.5 0 1,0 -1,0  M444.04 334 L444.04 334 451.04 328 444.04 322 M 444.04 322 m -1, 0 a 1,1 0 1,0 2,0 a 1,1 0 1,0 -2,0 M 444.04 322 m -0.5, 0 a 0.5,0.5 0 1,0 1,0 a 0.5,0.5 0 1,0 -1,0  M456.04 328 Q 497.84 328, 539.63 248.28 T 623.22 168.56 M 635.22 168.56 m -1, 0 a 1,1 0 1,0 2,0 a 1,1 0 1,0 -2,0 M 635.22 168.56 m -0.5, 0 a 0.5,0.5 0 1,0 1,0 a 0.5,0.5 0 1,0 -1,0  M635.22 168.56 L635.22 168.56 623.22 168.56 M629.22 174.56 L629.22 174.56 629.22 162.56" id="h2153122386" class="r"></path></g><g class="hrs"></g><g class="ts"><svg width="95.36" height="125" x="380.22" y="-89.78" id="h3010508784" class="t"><rect height="40" width="95.36" class="th"></rect><text x="13" y="25" class="tht">Teams</text><rect height="85" width="95.36" class="t-bg"></rect><text x="13" y="61" class="tf pk">id<tspan x="82.36" class="ty">int</tspan></text><path d="M7,14A2,2 0 0,1 5,12A2,2 0 0,1 7,10A2,2 0 0,1 9,12A2,2 0 0,1 7,14M12.65,10C11.83,7.67 9.61,6 7, 6A6, 6 0 0, 0 1, 12A6, 6 0 0, 0 7, 18C9.61, 18 11.83, 16.33 12.65, 14H17V18H21V14H23V10H12.65Z" class="i pk" transform="translate(49.686171875, 48) scale(0.65)"></path><text x="13" y="86" class="tf">name<tspan x="82.36" class="ty">text</tspan></text><text x="13" y="111" class="tf">city<tspan x="82.36" class="ty">int</tspan></text></svg><svg width="138.71" height="175" x="155" y="101" id="h4103274130" class="t"><rect height="40" width="138.71" class="th"></rect><text x="13" y="25" class="tht">Players</text><rect height="135" width="138.71" class="t-bg"></rect><text x="13" y="61" class="tf pk">id<tspan x="125.71000000000001" class="ty">int</tspan></text><path d="M7,14A2,2 0 0,1 5,12A2,2 0 0,1 7,10A2,2 0 0,1 9,12A2,2 0 0,1 7,14M12.65,10C11.83,7.67 9.61,6 7, 6A6, 6 0 0, 0 1, 12A6, 6 0 0, 0 7, 18C9.61, 18 11.83, 16.33 12.65, 14H17V18H21V14H23V10H12.65Z" class="i pk" transform="translate(93.03617187500001, 48) scale(0.65)"></path><text x="13" y="86" class="tf fk">current_teams_id</text><text x="13" y="111" class="tf">name<tspan x="125.71000000000001" class="ty">text</tspan></text><text x="13" y="136" class="tf">birthday<tspan x="125.71000000000001" class="ty">text</tspan></text><text x="13" y="161" class="tf">height<tspan x="125.71000000000001" class="ty">int</tspan></text></svg><svg width="154.06" height="300" x="635.22" y="111.56" id="h3829905542" class="t"><rect height="40" width="154.06" class="th"></rect><text x="13" y="25" class="tht">Matches</text><rect height="260" width="154.06" class="t-bg"></rect><text x="13" y="61" class="tf pk">id<tspan x="141.06" class="ty">int</tspan></text><path d="M7,14A2,2 0 0,1 5,12A2,2 0 0,1 7,10A2,2 0 0,1 9,12A2,2 0 0,1 7,14M12.65,10C11.83,7.67 9.61,6 7, 6A6, 6 0 0, 0 1, 12A6, 6 0 0, 0 7, 18C9.61, 18 11.83, 16.33 12.65, 14H17V18H21V14H23V10H12.65Z" class="i pk" transform="translate(108.386171875, 48) scale(0.65)"></path><text x="13" y="86" class="tf">home_team_id<tspan x="141.06" class="ty">int</tspan></text><text x="13" y="111" class="tf">away_team_id<tspan x="141.06" class="ty">int</tspan></text><text x="13" y="136" class="tf">stadium<tspan x="141.06" class="ty">text</tspan></text><text x="13" y="161" class="tf">date</text><text x="13" y="186" class="tf">start_time</text><text x="13" y="211" class="tf fk">season_id</text><text x="13" y="236" class="tf fk">head_refree_id</text><text x="13" y="261" class="tf fk">assistant_refree1_id</text><text x="13" y="286" class="tf fk">assistant_refree2_id</text></svg><svg width="107.37" height="125" x="610.67" y="-95.56" id="h2207534861" class="t"><rect height="40" width="107.37" class="th"></rect><text x="13" y="25" class="tht">Goals</text><rect height="85" width="107.37" class="t-bg"></rect><text x="13" y="61" class="tf pk">id<tspan x="94.37" class="ty">int</tspan></text><path d="M7,14A2,2 0 0,1 5,12A2,2 0 0,1 7,10A2,2 0 0,1 9,12A2,2 0 0,1 7,14M12.65,10C11.83,7.67 9.61,6 7, 6A6, 6 0 0, 0 1, 12A6, 6 0 0, 0 7, 18C9.61, 18 11.83, 16.33 12.65, 14H17V18H21V14H23V10H12.65Z" class="i pk" transform="translate(61.696171875000005, 48) scale(0.65)"></path><text x="13" y="86" class="tf fk">player_id</text><text x="13" y="111" class="tf fk">matches_id</text></svg><svg width="90" height="100" x="900.22" y="325.67" id="h4015154000" class="t"><rect height="40" width="90" class="th"></rect><text x="13" y="25" class="tht">Refrees</text><rect height="60" width="90" class="t-bg"></rect><text x="13" y="61" class="tf pk">id<tspan x="77" class="ty">int</tspan></text><path d="M7,14A2,2 0 0,1 5,12A2,2 0 0,1 7,10A2,2 0 0,1 9,12A2,2 0 0,1 7,14M12.65,10C11.83,7.67 9.61,6 7, 6A6, 6 0 0, 0 1, 12A6, 6 0 0, 0 7, 18C9.61, 18 11.83, 16.33 12.65, 14H17V18H21V14H23V10H12.65Z" class="i pk" transform="translate(44.326171875, 48) scale(0.65)"></path><text x="13" y="86" class="tf">name</text></svg><svg width="120.04" height="150" x="156.56" y="-83.22" id="h1247361070" class="t"><rect height="40" width="120.04" class="th"></rect><text x="13" y="25" class="tht">Lineups</text><rect height="110" width="120.04" class="t-bg"></rect><text x="13" y="61" class="tf pk">id<tspan x="107.04" class="ty">int</tspan></text><path d="M7,14A2,2 0 0,1 5,12A2,2 0 0,1 7,10A2,2 0 0,1 9,12A2,2 0 0,1 7,14M12.65,10C11.83,7.67 9.61,6 7, 6A6, 6 0 0, 0 1, 12A6, 6 0 0, 0 7, 18C9.61, 18 11.83, 16.33 12.65, 14H17V18H21V14H23V10H12.65Z" class="i pk" transform="translate(74.366171875, 48) scale(0.65)"></path><text x="13" y="86" class="tf fk">player_id<tspan x="107.04" class="ty">int</tspan></text><text x="13" y="111" class="tf fk">matches_id<tspan x="107.04" class="ty">int</tspan></text><text x="13" y="136" class="tf fk">teams_id<tspan x="107.04" class="ty">int</tspan></text></svg><svg width="118.71" height="125" x="167" y="344" id="h3133071897" class="t"><rect height="40" width="118.71" class="th"></rect><text x="13" y="25" class="tht">Season</text><rect height="85" width="118.71" class="t-bg"></rect><text x="13" y="61" class="tf pk">id<tspan x="105.71" class="ty">int</tspan></text><path d="M7,14A2,2 0 0,1 5,12A2,2 0 0,1 7,10A2,2 0 0,1 9,12A2,2 0 0,1 7,14M12.65,10C11.83,7.67 9.61,6 7, 6A6, 6 0 0, 0 1, 12A6, 6 0 0, 0 7, 18C9.61, 18 11.83, 16.33 12.65, 14H17V18H21V14H23V10H12.65Z" class="i pk" transform="translate(73.036171875, 48) scale(0.65)"></path><text x="13" y="86" class="tf">start_date<tspan x="105.71" class="ty">text</tspan></text><text x="13" y="111" class="tf">end_date<tspan x="105.71" class="ty">text</tspan></text></svg><svg width="120.04" height="150" x="324" y="221" id="h1488401382" class="t"><rect height="40" width="120.04" class="th"></rect><text x="13" y="25" class="tht">Results</text><rect height="110" width="120.04" class="t-bg"></rect><text x="13" y="61" class="tf pk">id<tspan x="107.04" class="ty">int</tspan></text><path d="M7,14A2,2 0 0,1 5,12A2,2 0 0,1 7,10A2,2 0 0,1 9,12A2,2 0 0,1 7,14M12.65,10C11.83,7.67 9.61,6 7, 6A6, 6 0 0, 0 1, 12A6, 6 0 0, 0 7, 18C9.61, 18 11.83, 16.33 12.65, 14H17V18H21V14H23V10H12.65Z" class="i pk" transform="translate(74.366171875, 48) scale(0.65)"></path><text x="13" y="86" class="tf fk">team_id<tspan x="107.04" class="ty">int</tspan></text><text x="13" y="111" class="tf fk">matches_id<tspan x="107.04" class="ty">int</tspan></text><text x="13" y="136" class="tf">result<tspan x="107.04" class="ty">text</tspan></text></svg></g></g><text class="qdbd-link" x="10" y="20">www.quickdatabasediagrams.com</text></svg>